<mxfile host="app.diagrams.net" modified="2023-06-30T02:09:07.986Z" agent="Mozilla/5.0 (Windows NT 10.0; Win64; x64) AppleWebKit/537.36 (KHTML, like Gecko) Chrome/113.0.0.0 Safari/537.36" version="21.3.2" etag="H1vboRVbs9R5-JyB2rp4" type="github">
  <diagram name="第 1 页" id="LIptAHFuSgJVY4e8A1ev">
    <mxGraphModel>
      <root>
        <mxCell id="0" />
        <mxCell id="1" parent="0" />
      </root>
    </mxGraphModel>
  </diagram>
</mxfile>
